<?xml version="1.0" encoding="UTF-8"?>
<svg id="Layer_4" data-name="Layer 4" xmlns="http://www.w3.org/2000/svg" viewBox="0 0 100 100">
  <defs>
    <style>
      .cls-1 {
        opacity: .5;
      }

      .cls-2 {
        fill: #1781e3;
      }

      .cls-2, .cls-3 {
        stroke-width: 0px;
      }

      .cls-3 {
        fill: #015;
      }
    </style>
  </defs>
  <g class="cls-1">
    <circle class="cls-2" cx="50" cy="34.35" r="29.35"/>
  </g>
  <g class="cls-1">
    <circle class="cls-2" cx="50" cy="34.35" r="17.12"/>
  </g>
  <path class="cls-3" d="m44.22,69.98l3.81,1.93v6.81l-6.82-2.91,3.01-5.83Zm7.75-9.81c.79,2.51,2.72,7.37,2.72,7.37l-2.72,1.24v-8.61Zm-3.95,8.58l-2.71-1.23s1.92-4.85,2.71-7.36v8.58Zm3.95,3.62l3.81-2.38,3.01,5.83-6.82,2.94v-6.38Zm-12.31,6.02l8.36,4.26v12.35h3.95v-12.29l8.36-4.32,7.92,10.4s3.13-2.8,2.84-2.74c-4.92-5.37-8.98-11.61-12.08-18.45l.04-.25c-.05,0-.1,0-.15-.01-3.8-8.48-6.11-17.87-6.73-27.63,2.15-.86,3.68-2.96,3.68-5.43,0-3.23-2.62-5.85-5.85-5.85s-5.85,2.62-5.85,5.85c0,2.46,1.53,4.56,3.68,5.43-.63,9.76-2.93,19.15-6.74,27.63-.04,0-.07,0-.11.01l.03.19c-3.1,6.86-7.17,13.12-12.1,18.51-.29-.07,2.84,2.74,2.84,2.74"/>
</svg>