<?xml version="1.0" encoding="UTF-8"?>
<svg id="Layer_2" data-name="Layer 2" xmlns="http://www.w3.org/2000/svg" viewBox="0 0 100 100">
  <defs>
    <style>
      .cls-1 {
        fill: #0c847e;
      }

      .cls-1, .cls-2 {
        stroke-width: 0px;
      }

      .cls-2 {
        fill: #0eaba9;
      }
    </style>
  </defs>
  <path class="cls-1" d="m64.35,73.22c0,.64-.03,1.28-.08,1.91-.97,11.93-10.96,21.31-23.14,21.31-12.83,0-23.22-10.39-23.22-23.22,0-4.05,1.04-7.86,2.87-11.18.26-.48.54-.96.85-1.42h0c4.12-6.39,11.31-10.62,19.49-10.62.93,0,1.86.06,2.76.17,1.43.16,2.81.46,4.14.87,2.11.66,4.1,1.61,5.9,2.81,1.58,1.04,3.03,2.28,4.31,3.67,3.35,3.65,5.55,8.38,6.01,13.61.07.69.1,1.39.1,2.09Z"/>
  <path class="cls-2" d="m64.35,73.22c0,.64-.03,1.28-.08,1.91-.97,11.93-10.96,21.31-23.14,21.31-12.83,0-23.22-10.39-23.22-23.22,0-4.05,1.04-7.86,2.87-11.18.26-.48.54-.96.85-1.42h0c4.12-6.39,11.31-10.62,19.49-10.62.93,0,1.86.06,2.76.17,1.43.16,2.81.46,4.14.87,2.11.66,4.1,1.61,5.9,2.81,1.58,1.04,3.03,2.28,4.31,3.67,3.35,3.65,5.55,8.38,6.01,13.61.07.69.1,1.39.1,2.09Z"/>
  <path class="cls-1" d="m92.29,51.22c0,7.03-3,13.36-7.78,17.78h-.01c-3.63,2.18-7.88,3.43-12.42,3.43-2.74,0-5.37-.45-7.82-1.3.07.69.1,1.39.1,2.09,0,.64-.03,1.28-.08,1.91-6.8-1.07-12.67-4.98-16.34-10.47-.98-1.46-1.8-3.03-2.43-4.69-1.06-2.72-1.64-5.67-1.64-8.75,0-.35,0-.7.03-1.05.35-8.39,4.98-15.67,11.75-19.73,1.83-1.1,3.82-1.96,5.92-2.54.88-.25,1.79-.45,2.71-.59,1.24-.2,2.51-.3,3.8-.3,13.37,0,24.21,10.84,24.21,24.21Z"/>
  <path class="cls-2" d="m96.29,48.22c0,8.83-4.72,16.55-11.78,20.78h-.01c-3.63,2.18-7.88,3.43-12.42,3.43-2.74,0-5.37-.45-7.82-1.3-4.81-1.63-8.93-4.74-11.84-8.78-1.08-1.5-1.99-3.13-2.71-4.86-.84-2.02-1.41-4.19-1.67-6.45-.11-.92-.17-1.87-.17-2.82,0-7.03,3-13.36,7.78-17.78,1.67-1.55,3.57-2.86,5.63-3.89.73-.37,1.49-.7,2.27-.99,2.65-1,5.53-1.55,8.53-1.55,13.37,0,24.21,10.84,24.21,24.21Z"/>
  <path class="cls-1" d="m66.12,37.56c0,7.71-2.99,14.73-7.88,19.96-1.71,1.86-3.68,3.49-5.83,4.83-1.41.9-2.91,1.67-4.48,2.31-3.42,1.41-7.16,2.18-11.09,2.18-5.93,0-11.45-1.76-16.06-4.8.26-.48.54-.96.85-1.42-2.69-1.12-5.17-2.62-7.38-4.44l-.03-.03c-4.16-5.06-6.66-11.53-6.66-18.59,0-16.17,13.11-29.28,29.28-29.28,7.06,0,13.54,2.5,18.59,6.66.01.01.02.02.03.03,2.73,3.32,4.75,7.26,5.81,11.58.73-.37,1.49-.7,2.27-.99.27.57.51,1.15.73,1.75,1.2,3.19,1.85,6.64,1.85,10.25Z"/>
  <path class="cls-2" d="m62.12,33.56c0,7.87-3.11,15.03-8.19,20.29-1.28,1.35-2.7,2.57-4.23,3.64-1.32.94-2.73,1.77-4.2,2.48-3.83,1.84-8.12,2.87-12.66,2.87-3.97,0-7.75-.79-11.2-2.22h0c-2.69-1.12-5.17-2.62-7.38-4.44l-.03-.03c-6.51-5.37-10.66-13.49-10.66-22.59,0-16.17,13.11-29.28,29.28-29.28,9.1,0,17.22,4.15,22.59,10.66.01.01.02.02.03.03,2.73,3.32,4.75,7.26,5.81,11.58.11.44.21.9.29,1.35.37,1.83.56,3.72.56,5.66Z"/>
</svg>