<?xml version="1.0" encoding="UTF-8"?>
<svg id="Layer_2" data-name="Layer 2" xmlns="http://www.w3.org/2000/svg" viewBox="0 0 100 100">
  <defs>
    <style>
      .cls-1 {
        fill: #0eaba9;
        stroke-width: 0px;
      }
    </style>
  </defs>
  <path class="cls-1" d="m46.55,26.83c0,5.51-2.18,10.53-5.74,14.21-.9.95-1.89,1.8-2.96,2.55-.92.66-1.91,1.24-2.94,1.74-2.68,1.29-5.69,2.01-8.87,2.01-2.78,0-5.43-.55-7.85-1.56h0c-1.88-.78-3.62-1.84-5.17-3.11l-.02-.02c-4.56-3.76-7.47-9.45-7.47-15.82,0-11.33,9.18-20.51,20.51-20.51,6.37,0,12.06,2.91,15.82,7.47,0,0,.01.01.02.02,1.91,2.33,3.33,5.09,4.07,8.11.08.31.15.63.2.95.26,1.28.39,2.61.39,3.96Z"/>
  <path class="cls-1" d="m92.48,44.78c0,5.51-2.18,10.53-5.74,14.21-.9.95-1.89,1.8-2.96,2.55-.92.66-1.91,1.24-2.94,1.74-2.68,1.29-5.69,2.01-8.87,2.01-2.78,0-5.43-.55-7.85-1.56h0c-1.88-.78-3.62-1.84-5.17-3.11l-.02-.02c-4.56-3.76-7.47-9.45-7.47-15.82,0-11.33,9.18-20.51,20.51-20.51,6.37,0,12.06,2.91,15.82,7.47,0,0,.01.01.02.02,1.91,2.33,3.33,5.09,4.07,8.11.08.31.15.63.2.95.26,1.28.39,2.61.39,3.96Z"/>
  <path class="cls-1" d="m54.66,74.07c0,5.51-2.18,10.53-5.74,14.21-.9.95-1.89,1.8-2.96,2.55-.92.66-1.91,1.24-2.94,1.74-2.68,1.29-5.69,2.01-8.87,2.01-2.78,0-5.43-.55-7.85-1.56h0c-1.88-.78-3.62-1.84-5.17-3.11l-.02-.02c-4.56-3.76-7.47-9.45-7.47-15.82,0-11.33,9.18-20.51,20.51-20.51,6.37,0,12.06,2.91,15.82,7.47,0,0,.01.01.02.02,1.91,2.33,3.33,5.09,4.07,8.11.08.31.15.63.2.95.26,1.28.39,2.61.39,3.96Z"/>
</svg>