<?xml version="1.0" encoding="UTF-8"?>
<svg id="Layer_2" data-name="Layer 2" xmlns="http://www.w3.org/2000/svg" viewBox="0 0 100 100">
  <defs>
    <style>
      .cls-1 {
        fill: #0c847e;
      }

      .cls-1, .cls-2 {
        stroke-width: 0px;
      }

      .cls-2 {
        fill: #0eaba9;
      }
    </style>
  </defs>
  <path class="cls-1" d="m88.3,78.7c-2.77,7-8.25,12.12-14.76,14.64h0c-4.47.74-9.2.3-13.72-1.49-2.73-1.08-5.17-2.57-7.27-4.38-4.15-3.52-7.02-8.24-8.33-13.41-.48-1.92-.75-3.9-.78-5.91-1.69.42-3.42.69-5.16.81.02-3.13.6-6.29,1.82-9.36.14-.35.29-.69.44-1.03,3.66-8.22,11.14-13.64,19.48-15.01,2.26-.37,4.58-.45,6.9-.2.97.1,1.96.26,2.93.48,1.31.29,2.62.69,3.9,1.2,13.31,5.27,19.83,20.34,14.56,33.65Z"/>
  <path class="cls-2" d="m93.46,77.29c-3.48,8.79-11.23,14.62-19.92,16.05h0c-4.47.74-9.2.3-13.72-1.49-2.73-1.08-5.17-2.57-7.27-4.38-4.15-3.52-7.02-8.24-8.33-13.41-.48-1.92-.75-3.9-.78-5.91-.04-2.34.25-4.73.88-7.08.25-.96.57-1.93.94-2.87,2.77-7,8.25-12.12,14.76-14.64,2.27-.88,4.68-1.44,7.14-1.65.87-.08,1.76-.11,2.65-.09,3.03.05,6.12.64,9.1,1.82,13.31,5.27,19.83,20.34,14.56,33.65Z"/>
  <path class="cls-1" d="m67.63,54.79c-3.04,7.68-8.79,13.49-15.72,16.77-2.44,1.18-5.04,2.02-7.71,2.51-.48-1.92-.75-3.9-.78-5.91-1.69.42-3.42.69-5.16.81-4.54.32-9.22-.34-13.74-2.13-3.95-1.57-7.41-3.84-10.28-6.63h-.01c-2.24-2.18-4.11-4.65-5.6-7.33l-.02-.04c-2.15-6.68-2.09-14.11.7-21.14C15.7,15.6,33.92,7.71,50.02,14.09c7.03,2.78,12.5,7.83,15.88,13.96,0,.01.01.03.02.04,1.41,4.38,1.87,9.1,1.22,13.82.87-.08,1.76-.11,2.65-.09.04.67.05,1.35.04,2.03-.06,3.65-.78,7.34-2.2,10.94Z"/>
  <path class="cls-2" d="m65.23,49.23c-3.1,7.84-9.02,13.74-16.15,16.97-1.81.84-3.7,1.49-5.65,1.96-1.69.42-3.42.69-5.16.81-4.54.32-9.22-.34-13.74-2.13-3.95-1.57-7.41-3.84-10.28-6.63h-.01c-2.24-2.18-4.11-4.65-5.6-7.33l-.02-.04c-4.37-7.91-5.3-17.64-1.71-26.7C13.29,10.04,31.52,2.15,47.62,8.53c9.06,3.59,15.51,10.92,18.29,19.52,0,.01.01.03.02.04,1.41,4.38,1.87,9.1,1.22,13.82-.06.48-.15.98-.24,1.46-.35,1.97-.91,3.92-1.67,5.86Z"/>
</svg>