<?xml version="1.0" encoding="UTF-8"?>
<svg id="Layer_2" data-name="Layer 2" xmlns="http://www.w3.org/2000/svg" viewBox="0 0 100 100">
  <defs>
    <style>
      .cls-1 {
        fill: #0eaba9;
        stroke-width: 0px;
      }
    </style>
  </defs>
  <path class="cls-1" d="m89.19,51.07c0,10.53-4.16,20.12-10.96,27.16-1.71,1.81-3.61,3.44-5.66,4.87-1.77,1.26-3.65,2.37-5.62,3.32-5.13,2.46-10.87,3.84-16.95,3.84-5.31,0-10.37-1.06-14.99-2.97h-.01c-3.6-1.5-6.92-3.51-9.88-5.94l-.04-.04c-8.71-7.19-14.27-18.06-14.27-30.24,0-21.64,17.55-39.19,39.19-39.19,12.18,0,23.05,5.55,30.24,14.27.01.01.03.03.04.04,3.65,4.44,6.36,9.72,7.78,15.5.15.59.28,1.2.39,1.81.5,2.45.75,4.98.75,7.58Z"/>
</svg>